<?xml version="1.0" encoding="UTF-8"?>
<svg width="39.679" height="31.759" version="1.1" viewBox="0 0 39.679 31.759" xmlns="http://www.w3.org/2000/svg">
 <path transform="translate(7.5952 38.046)" d="m11.674-38.045c-0.22229 0.0069-0.4044 0.0525-0.53906 0.08789-4.5626 1.2002-9.1045 2.4334-13.652 3.6641-0.037704 0.01018-0.066225 0.01877-0.097656 0.0293-0.0058 0.0017-0.011776 0.0041-0.017578 0.0059-0.51439 0.15714-1.0432 0.43569-1.4492 0.82031l-2.6621 2.5215c-0.63629 0.60272-0.97612 1.4691-0.80859 2.3535 0.16766 0.88729 0.80055 1.5677 1.6133 1.8965l2.0098 0.8125v9.4297c0 1.2766 0.81064 2.6115 1.9434 3.2012l12.533 6.5215c0.53287 0.27704 1.181 0.41406 1.7949 0.41406s1.2621-0.13604 1.7969-0.41406l12.531-6.5215c1.1327-0.58949 1.9434-1.9246 1.9434-3.2012v-9.4062l1.8145-0.73438c0.81015-0.32782 1.4455-1.0073 1.6133-1.8945 0.16838-0.88796-0.17579-1.7522-0.81055-2.3535l-2.6602-2.5215c-0.3242-0.30718-0.7148-0.53669-1.1172-0.69922-0.16359-0.10892-0.34026-0.20439-0.54102-0.25977l-2.377-0.65625-12.225-3.0215-0.0078-2e-3c-0.19607-0.04489-0.40057-0.07938-0.62891-0.07227z" fill="#ede8d3"/>
 <path d="m19.019 1.1858c-4.558 1.199-9.0965 2.4292-13.647 3.6605-0.02259 0.00613-0.04451 0.01349-0.06608 0.02145-0.39028 0.11723-0.7475 0.31193-1.0134 0.56383l-2.6613 2.5212c-0.39131 0.37067-0.56495 0.85204-0.4762 1.3205 0.088543 0.4686 0.42613 0.85336 0.92579 1.0555l2.7195 1.1v10.194c0 0.8561 0.57257 1.7996 1.332 2.1949l12.532 6.5216c0.3518 0.1829 0.8037 0.2838 1.2726 0.2838s0.9209-0.1009 1.2727-0.2838l12.532-6.5217c0.7594-0.3952 1.3322-1.3388 1.3322-2.1949v-10.171l2.5228-1.0205c0.4996-0.20216 0.8371-0.58692 0.9257-1.0555 0.0888-0.4683-0.0848-0.94966-0.4762-1.3204l-2.6613-2.521c-0.2322-0.22001-0.5342-0.39637-0.8669-0.51577-0.0866-0.07822-0.1916-0.13859-0.3117-0.17172l-2.3629-0.65309-12.2-3.0151c-0.3015-0.069027-0.3976-0.053157-0.625 0.0066zm0.4252 1.3803 11.46 2.7671-8.0858 2.4518c0.0114 0.01186 0.0255 0.02937 0.0365 0.04078l-2.9167 0.85314-10.958-3.2054c-0.5685-0.14717 9.6566-3.0331 10.464-2.9075zm-13.306 3.7248c0.10123 0 0.16993 0.01394 0.20977 0.0255l12.301 3.5983-2.8711 3.8298c-0.0932 0.1244-0.3013 0.2146-0.4949 0.2146-0.0647 0-0.1239-0.0101-0.1711-0.0292l-12.291-4.9719 2.5366-2.4027c0.15912-0.15077 0.49453-0.26451 0.78038-0.26451zm27.403 0.10331c0.2859 0 0.6213 0.11375 0.7804 0.26452l2.5367 2.4027-12.291 4.9719c-0.0472 0.0192-0.1064 0.0291-0.171 0.0291-0.1936 0-0.4018-0.0903-0.4951-0.2147l-2.871-3.8297 12.301-3.5983c0.0398-0.01159 0.1085-0.0255 0.2097-0.0255zm-14.377 5.4142v17.046l-12.316-6.409c-0.24704-0.1285-0.49866-0.5433-0.49866-0.8218v-9.5681l8.1824 3.31c0.2332 0.0944 0.4861 0.1422 0.7514 0.1422 0.6835 0 1.3481-0.3198 1.7338-0.8342zm14.363 0.2703v9.5444c0 0.2784-0.2517 0.6932-0.4987 0.8218l-12.316 6.4092v-16.68l1.9509 2.6024c0.3856 0.5145 1.05 0.8342 1.7337 0.8342 0.2654 0 0.5182-0.0477 0.7515-0.142z" fill="#5e7358"/>
</svg>
