<svg width="32" height="32" viewBox="0 0 32 32" fill="none" xmlns="http://www.w3.org/2000/svg">
<path d="M15.8655 0.00014383C11.6456 0.0354585 7.6105 1.73658 4.63894 4.73307C1.66739 7.72955 4.29481e-05 11.7787 1.05736e-07 15.9988C-0.000241475 18.1002 0.413483 20.181 1.21754 22.1225C2.0216 24.064 3.20024 25.828 4.68615 27.3139C6.17206 28.7998 7.93612 29.9784 9.8776 30.7825C11.8191 31.5865 13.8999 32.0002 16.0013 32C18.1025 31.9999 20.1831 31.5859 22.1242 30.7817C24.0654 29.9775 25.8292 28.7989 27.3148 27.313C28.8004 25.8271 29.9788 24.0632 30.7827 22.1219C31.5866 20.1806 32.0002 18.1 32 15.9988C31.9998 11.7558 30.3142 7.68654 27.3139 4.68626C24.3136 1.68597 20.2444 0.000338673 16.0013 0.00014383C15.9561 -4.79432e-05 15.9108 -4.79432e-05 15.8655 0.00014383ZM16.0012 7.2643C17.1887 7.2643 18.2858 7.47781 19.295 7.90841C20.3191 8.33911 21.2026 8.93425 21.9447 9.69122C22.6869 10.4332 23.2657 11.3168 23.6813 12.3409C24.1115 13.35 24.3254 14.4334 24.3254 15.5911C24.3254 16.7488 24.1119 17.839 23.6813 18.8631C23.2659 19.8723 22.6869 20.7559 21.9447 21.5128C21.2026 22.2548 20.3191 22.8406 19.295 23.2711C18.2858 23.7013 17.1887 23.9151 16.0012 23.9151C14.8139 23.9151 13.7072 23.7016 12.6831 23.2711C11.6738 22.8404 10.7972 22.2548 10.0551 21.5128C9.31309 20.7559 8.72731 19.8723 8.29681 18.8631C7.88137 17.839 7.67458 16.7488 7.67458 15.5911C7.67458 14.4334 7.88126 13.35 8.29681 12.3409C8.72751 11.3168 9.31309 10.4332 10.0551 9.69122C10.7972 8.93425 11.6738 8.33891 12.6831 7.90841C13.7072 7.47824 14.8139 7.2643 16.0012 7.2643ZM16.0012 10.1124C15.2592 10.1124 14.5618 10.2476 13.9087 10.5147C13.2706 10.7819 12.7053 11.1539 12.2156 11.6289C11.7407 12.1038 11.3616 12.68 11.0796 13.3628C10.8125 14.0307 10.6799 14.7748 10.6799 15.5911C10.6799 16.4075 10.8125 17.1559 11.0796 17.8387C11.3615 18.5065 11.7406 19.0784 12.2156 19.5535C12.7052 20.0284 13.2706 20.3978 13.9087 20.6649C14.5618 20.9321 15.2592 21.0672 16.0012 21.0672C16.7434 21.0672 17.434 20.9321 18.0721 20.6649C18.7252 20.3978 19.2875 20.0284 19.7625 19.5535C20.2521 19.0786 20.6313 18.5065 20.8985 17.8387C21.1803 17.1559 21.3197 16.4075 21.3197 15.5911C21.3197 14.7748 21.1803 14.0307 20.8985 13.3628C20.6313 12.68 20.2523 12.1038 19.7625 11.6289C19.2876 11.154 18.7252 10.7819 18.0721 10.5147C17.434 10.2476 16.7434 10.1124 16.0012 10.1124ZM22.9041 23.2412C22.9239 23.241 22.9437 23.241 22.9635 23.2412C23.5422 23.2414 24.0972 23.4713 24.5064 23.8805C24.9156 24.2897 25.1456 24.8446 25.1458 25.4233C25.1461 25.7101 25.0898 25.9941 24.9803 26.2592C24.8707 26.5242 24.7101 26.7651 24.5074 26.968C24.3047 27.1709 24.0641 27.3319 23.7992 27.4418C23.5343 27.5516 23.2503 27.6082 22.9635 27.6083C22.6765 27.6086 22.3923 27.5523 22.127 27.4425C21.8618 27.3328 21.6208 27.1719 21.4179 26.969C21.2149 26.766 21.054 26.525 20.9443 26.2598C20.8346 25.9946 20.7783 25.7104 20.7785 25.4233C20.7785 24.8544 21.0007 24.3079 21.3977 23.9003C21.7946 23.4927 22.3353 23.2563 22.9041 23.2412Z" fill="#FF5555"/>
</svg>
